<?xml version="1.0" standalone="no"?>
<!DOCTYPE svg PUBLIC "-//W3C//DTD SVG 20010904//EN"
 "http://www.w3.org/TR/2001/REC-SVG-20010904/DTD/svg10.dtd">
<svg version="1.0" xmlns="http://www.w3.org/2000/svg"
 width="728.000000pt" height="722.000000pt" viewBox="0 0 728.000000 722.000000"
 preserveAspectRatio="xMidYMid meet">

<g transform="translate(0.000000,722.000000) scale(0.100000,-0.100000)"
fill="#000000" stroke="none">
<path d="M3400 7213 c-447 -43 -797 -127 -1133 -269 -70 -30 -130 -54 -133
-54 -13 0 -433 -226 -489 -263 -506 -337 -998 -896 -1275 -1446 -163 -326
-272 -671 -337 -1066 -26 -163 -27 -185 -28 -525 0 -388 4 -430 61 -725 72
-363 178 -671 331 -957 30 -57 65 -121 77 -143 11 -22 45 -75 74 -118 29 -43
50 -83 46 -89 -4 -7 -3 -8 4 -4 13 8 35 -28 24 -39 -4 -3 -2 -5 4 -3 13 3 155
-176 148 -186 -2 -3 -1 -4 2 -2 3 2 36 -30 74 -72 122 -138 313 -328 410 -409
153 -127 378 -280 557 -379 28 -15 49 -32 46 -38 -3 -5 -2 -6 4 -3 6 4 37 -7
69 -24 33 -16 110 -53 171 -81 62 -28 113 -55 113 -60 0 -5 9 -7 19 -3 10 3
25 0 32 -7 8 -7 19 -13 24 -14 19 -1 70 -17 80 -25 35 -27 471 -135 640 -159
87 -12 197 -27 260 -35 22 -3 132 -8 245 -12 251 -7 477 7 739 48 216 33 327
59 510 119 67 22 127 37 132 34 5 -3 9 -1 9 4 0 5 8 12 18 15 66 21 202 72
233 88 21 10 45 19 54 19 8 0 15 4 15 9 0 5 9 7 20 4 14 -4 20 0 20 10 0 16
35 33 59 28 7 -1 10 2 7 7 -6 11 41 35 54 27 5 -3 13 3 19 12 6 10 11 15 11
11 0 -4 11 4 26 18 19 20 31 24 52 20 18 -5 22 -4 13 3 -10 7 0 17 40 43 30
19 61 37 69 41 8 4 47 30 85 58 39 28 81 58 95 67 14 8 35 25 48 36 20 18 24
18 33 6 8 -12 9 -11 7 5 -2 16 2 19 20 18 15 -2 22 2 20 11 -4 18 128 130 143
120 8 -4 9 -3 5 5 -4 6 5 21 21 35 15 14 48 43 71 65 24 23 49 38 54 34 6 -3
8 -2 5 4 -8 13 37 56 48 46 4 -5 5 -3 2 3 -7 13 125 159 144 159 7 0 14 6 17
14 3 10 0 11 -9 5 -8 -4 15 26 50 69 35 42 68 74 74 70 6 -3 7 -1 3 5 -8 14
73 123 87 115 5 -3 7 -1 4 4 -4 6 37 80 90 164 284 453 446 924 513 1494 18
151 24 547 11 706 -24 285 -84 570 -176 838 -120 347 -241 590 -453 901 -141
208 -239 326 -422 511 -300 302 -560 489 -971 695 -428 214 -931 352 -1404
384 -132 9 -358 11 -435 3z m594 -297 c734 -102 1382 -398 1891 -863 312 -285
524 -571 775 -1044 33 -61 147 -360 180 -470 42 -139 86 -350 106 -501 22
-169 30 -612 15 -775 -12 -123 -35 -298 -47 -355 l-5 -27 -231 -1 c-127 0
-236 -4 -242 -7 -6 -4 19 26 56 67 75 83 148 216 173 315 20 78 20 253 0 329
-22 85 -79 186 -144 258 -57 63 -57 63 -73 162 -13 79 -26 120 -64 195 -40 83
-60 109 -143 191 -160 158 -270 209 -469 218 -94 4 -138 1 -195 -12 -147 -35
-298 -131 -398 -253 l-43 -53 -62 0 -62 0 -11 44 c-16 65 -67 126 -131 158
l-55 27 -323 4 -322 4 -69 47 c-74 50 -207 183 -257 256 -17 25 -45 72 -62
106 -31 62 -67 182 -58 192 3 2 25 -14 48 -37 111 -108 285 -189 451 -211 58
-8 242 -10 569 -8 465 4 486 5 558 27 41 12 102 37 135 54 81 42 220 182 263
265 l33 62 214 0 213 0 26 31 c32 38 33 70 2 106 l-24 28 -196 3 -196 3 0 58
c0 239 -173 487 -429 615 -152 76 -166 78 -611 85 l-395 6 -40 25 c-22 13 -72
45 -112 71 -200 130 -472 194 -721 170 -154 -15 -236 -35 -357 -84 -322 -131
-605 -394 -739 -690 -44 -95 -90 -241 -107 -337 -8 -44 -14 -142 -13 -235 0
-213 25 -338 101 -504 18 -40 33 -75 33 -76 0 -2 -13 -6 -29 -10 -16 -3 -55
-22 -86 -41 -53 -31 -64 -34 -139 -34 -281 -1 -579 -102 -823 -279 -124 -90
-301 -268 -379 -382 -155 -224 -256 -498 -284 -769 -6 -63 -14 -125 -16 -137
-4 -23 -7 -23 -159 -23 -138 0 -154 2 -159 18 -19 63 -48 282 -57 442 -14 228
0 571 31 785 50 337 165 681 332 993 249 466 644 919 1073 1234 78 57 444 268
465 268 5 0 82 29 172 64 347 136 653 211 993 246 125 12 498 4 629 -14z
m-213 -702 c119 -22 219 -64 364 -151 191 -115 187 -114 595 -119 381 -6 443
-14 566 -74 81 -40 174 -131 213 -212 107 -216 -12 -458 -250 -512 -100 -23
-1015 -24 -1104 -1 -149 38 -275 133 -340 255 -29 57 -44 75 -73 87 -126 52
-292 -128 -309 -337 -14 -169 68 -380 219 -561 l49 -59 -485 0 -485 0 -37 66
c-148 265 -183 576 -97 873 78 273 293 523 561 656 86 42 201 82 274 94 87 14
250 12 339 -5z m2058 -1869 c210 -50 361 -241 361 -456 0 -37 -4 -79 -10 -93
-8 -23 -6 -28 20 -41 60 -31 146 -123 174 -186 71 -157 14 -366 -125 -461 -97
-67 -109 -68 -711 -68 l-538 0 0 448 0 448 28 26 c43 41 66 48 149 48 43 0 84
4 91 8 7 5 28 41 47 81 95 199 299 296 514 246z m-3317 -20 c66 -31 161 -51
303 -66 162 -16 1035 -23 1360 -10 303 11 429 28 514 66 29 14 55 25 57 25 2
0 4 -25 4 -55 0 -51 -10 -69 -25 -45 -5 8 -11 8 -19 1 -15 -13 -161 -44 -179
-38 -6 2 -31 -2 -56 -10 -24 -7 -47 -10 -52 -7 -5 3 -9 -60 -9 -144 l0 -150
-47 -6 c-27 -2 -55 -5 -63 -5 -8 0 -51 -3 -95 -7 -160 -13 -977 -16 -1185 -4
-335 19 -476 46 -535 106 l-35 35 0 169 c0 94 2 170 4 170 2 0 28 -11 58 -25z
m-292 -402 c-1 -159 -4 -374 -7 -479 l-6 -192 -61 -28 c-128 -60 -282 -249
-314 -384 -31 -130 -22 -305 20 -418 54 -143 180 -294 300 -357 l56 -29 4
-201 c5 -251 16 -286 117 -386 147 -146 325 -190 856 -211 347 -14 1055 1
1245 27 306 41 446 118 531 290 l34 70 3 537 3 538 573 0 574 0 20 -49 c12
-26 27 -82 33 -122 15 -95 6 -351 -14 -444 -64 -287 -226 -549 -508 -820 -331
-319 -785 -546 -1299 -649 -206 -42 -325 -48 -860 -44 -546 5 -571 7 -825 78
-407 115 -809 338 -1064 592 -330 328 -542 695 -649 1123 -41 161 -47 225 -47
455 1 205 3 235 27 340 62 276 189 503 393 698 157 152 319 245 525 303 117
32 197 46 283 48 l58 1 -1 -287z m2380 -3 c-34 -11 -60 -11 -35 0 11 5 29 8
40 8 16 0 15 -2 -5 -8z m-2080 -193 c66 -31 183 -53 379 -69 203 -17 1145 -17
1361 0 294 23 357 36 483 100 4 2 7 -22 7 -53 0 -31 -4 -54 -9 -51 -5 4 -20 2
-34 -3 -13 -5 -39 -12 -58 -16 -19 -3 -43 -8 -54 -10 -11 -2 -54 -10 -95 -16
-41 -6 -76 -12 -77 -14 -2 -1 -6 -64 -9 -141 l-7 -140 44 4 c24 2 42 2 39 -1
-3 -3 -35 -8 -70 -11 -36 -3 -108 -10 -160 -15 -125 -13 -278 -16 -730 -16
-453 0 -674 11 -854 41 -112 18 -166 42 -200 86 -26 34 -26 37 -26 197 0 90 3
161 8 159 4 -2 32 -16 62 -31z m2033 -404 c-7 -2 -19 -2 -25 0 -7 3 -2 5 12 5
14 0 19 -2 13 -5z m195 -300 c-2 -150 -3 -159 -5 -55 -3 109 -6 122 -21 122
-10 0 -22 -4 -27 -8 -16 -14 -92 -35 -106 -30 -8 3 -21 2 -30 -3 -9 -5 -45
-11 -80 -13 l-64 -4 -3 -154 c-1 -84 1 -148 6 -141 5 8 13 9 22 3 13 -9 13
-10 0 -11 -39 -4 -59 -7 -91 -13 -113 -21 -1112 -31 -1339 -13 -58 5 -114 9
-125 9 -36 1 -225 28 -273 39 -69 15 -131 55 -148 95 -10 24 -14 78 -14 189 0
85 2 155 5 155 3 0 16 -7 28 -15 126 -82 475 -111 1243 -102 608 6 835 27 961
88 24 12 45 25 49 30 3 5 7 9 10 9 2 0 3 -80 2 -177z m2 -470 c0 -53 -2 -58
-22 -59 -22 -2 -63 -11 -63 -14 0 -4 -36 -12 -125 -28 -52 -9 -100 -20 -107
-25 -6 -4 -14 -1 -16 5 -3 7 -6 -58 -6 -144 -1 -156 -1 -158 -23 -160 -13 -1
-36 -3 -53 -4 -16 -2 -59 -5 -95 -8 -36 -3 -90 -8 -120 -12 -107 -13 -916 -16
-1053 -5 -73 7 -159 14 -192 17 -99 8 -286 44 -330 63 -22 10 -51 30 -65 45
-24 27 -25 33 -28 188 -2 88 -1 166 2 174 4 10 15 8 49 -11 62 -35 176 -62
314 -75 334 -30 1248 -28 1569 4 157 15 294 51 337 87 12 10 23 18 25 19 1 0
2 -26 2 -57z m2021 -116 c-10 -9 -11 -8 -5 6 3 10 9 15 12 12 3 -3 0 -11 -7
-18z m-6264 -59 c-3 -8 -6 -5 -6 6 -1 11 2 17 5 13 3 -3 4 -12 1 -19z m2075
-423 c205 -60 815 -89 1382 -65 408 18 653 54 744 110 18 11 35 20 37 20 3 0
5 -24 5 -54 0 -53 -1 -55 -32 -62 -18 -4 -40 -8 -48 -9 -8 -1 -22 -5 -30 -8
-18 -6 -187 -31 -212 -31 -16 0 -18 -13 -20 -121 -2 -204 3 -193 -93 -197 -33
-1 -73 -3 -90 -5 -233 -25 -1068 -25 -1290 1 -16 2 -61 6 -100 10 -123 12
-249 36 -292 57 -78 38 -88 62 -91 237 -2 85 -1 160 2 168 4 11 13 9 42 -11
20 -14 59 -32 86 -40z m3789 -88 c-10 -9 -11 -8 -5 6 3 10 9 15 12 12 3 -3 0
-11 -7 -18z"/>
<path d="M1763 6063 c-6 -2 -21 -33 -33 -68 -45 -135 -150 -257 -276 -320 -40
-20 -75 -43 -78 -50 -3 -10 20 -28 76 -57 90 -47 178 -126 220 -198 14 -25 38
-80 53 -123 23 -65 31 -77 48 -75 14 2 26 20 41 63 40 111 70 160 141 230 48
48 93 81 140 104 104 51 105 57 12 100 -131 59 -226 160 -277 293 -33 87 -47
108 -67 101z"/>
<path d="M1131 5167 c-15 -44 -73 -99 -139 -132 -29 -14 -50 -30 -47 -35 3 -5
25 -18 48 -28 61 -27 105 -68 133 -123 13 -27 26 -49 29 -49 2 0 12 14 20 31
24 46 83 107 132 136 23 13 43 31 43 37 0 7 -18 21 -40 31 -47 21 -117 93
-132 136 -13 38 -34 37 -47 -4z"/>
<path d="M6183 4981 c-18 -29 -47 -58 -72 -72 -41 -23 -53 -39 -28 -39 20 0
86 -59 102 -91 21 -39 46 -37 69 6 19 35 75 85 95 85 20 0 11 28 -10 35 -35
11 -87 64 -94 95 -9 43 -28 37 -62 -19z"/>
<path d="M6657 3942 c-38 -42 -7 -122 47 -122 63 0 99 77 56 120 -26 26 -81
26 -103 2z"/>
<path d="M530 3807 c-38 -19 -55 -61 -40 -98 22 -52 69 -63 114 -28 66 52 0
163 -74 126z"/>
<path d="M4728 5720 c-113 -60 -116 -211 -5 -283 63 -41 132 -34 190 21 75 71
75 164 1 234 -55 51 -122 61 -186 28z"/>
<path d="M5683 3958 c-6 -7 -18 -36 -27 -65 -39 -119 -143 -236 -265 -297 -39
-20 -71 -41 -71 -46 0 -5 32 -26 72 -45 40 -20 91 -51 114 -70 58 -47 120
-143 144 -223 34 -110 58 -110 100 1 18 45 39 95 48 112 27 52 127 140 206
180 42 21 76 42 76 46 0 4 -33 25 -72 47 -135 74 -203 149 -254 282 -34 89
-49 106 -71 78z"/>
<path d="M5427 2503 c-2 -5 -4 -26 -6 -48 -4 -73 -29 -132 -79 -187 l-24 -26
63 -62 63 -62 27 34 c79 96 129 212 129 300 l0 58 -84 0 c-47 0 -87 -3 -89 -7z"/>
<path d="M2178 263 c7 -3 16 -2 19 1 4 3 -2 6 -13 5 -11 0 -14 -3 -6 -6z"/>
</g>
</svg>
